<?xml version="1.0" encoding="utf-8"?>
<!-- Generator: Adobe Illustrator 26.3.1, SVG Export Plug-In . SVG Version: 6.00 Build 0)  -->
<svg version="1.1" id="Layer_1" xmlns="http://www.w3.org/2000/svg" xmlns:xlink="http://www.w3.org/1999/xlink" x="0px" y="0px"
	 viewBox="0 0 840 500" style="enable-background:new 0 0 840 500;" xml:space="preserve">
<style type="text/css">
	.st0{fill:#F0B90B;}
</style>
<path class="st0" d="M283,250l-56.4,56.4L170.1,250l56.4-56.4L283,250z M420.1,112.9l96.7,96.7l56.4-56.4L420.1,0L266.8,153.3
	l56.4,56.4L420.1,112.9z M613.5,193.6L557.1,250l56.4,56.4l56.4-56.4L613.5,193.6z M420.1,387.1l-96.7-96.7l-56.4,56.4L420.1,500
	l153.1-153.3l-56.4-56.4L420.1,387.1z M420.1,306.4l56.4-56.4l-56.4-56.4L363.5,250L420.1,306.4z"/>
</svg>
